<?xml version="1.0" encoding="UTF-8"?>
<svg width="200" height="200" viewBox="0 0 200 200" fill="none" xmlns="http://www.w3.org/2000/svg">
  <circle cx="20" cy="30" r="1" fill="white"/>
  <circle cx="40" cy="15" r="1.5" fill="white"/>
  <circle cx="60" cy="40" r="1" fill="white"/>
  <circle cx="80" cy="25" r="2" fill="white"/>
  <circle cx="100" cy="10" r="1" fill="white"/>
  <circle cx="120" cy="35" r="1.5" fill="white"/>
  <circle cx="140" cy="20" r="1" fill="white"/>
  <circle cx="160" cy="45" r="2" fill="white"/>
  <circle cx="180" cy="30" r="1" fill="white"/>
  
  <circle cx="10" cy="60" r="1.5" fill="white"/>
  <circle cx="30" cy="75" r="1" fill="white"/>
  <circle cx="50" cy="90" r="2" fill="white"/>
  <circle cx="70" cy="65" r="1" fill="white"/>
  <circle cx="90" cy="80" r="1.5" fill="white"/>
  <circle cx="110" cy="95" r="1" fill="white"/>
  <circle cx="130" cy="70" r="2" fill="white"/>
  <circle cx="150" cy="85" r="1" fill="white"/>
  <circle cx="170" cy="100" r="1.5" fill="white"/>
  <circle cx="190" cy="75" r="1" fill="white"/>
  
  <circle cx="15" cy="120" r="2" fill="white"/>
  <circle cx="35" cy="105" r="1" fill="white"/>
  <circle cx="55" cy="130" r="1.5" fill="white"/>
  <circle cx="75" cy="115" r="1" fill="white"/>
  <circle cx="95" cy="140" r="2" fill="white"/>
  <circle cx="115" cy="125" r="1" fill="white"/>
  <circle cx="135" cy="150" r="1.5" fill="white"/>
  <circle cx="155" cy="135" r="1" fill="white"/>
  <circle cx="175" cy="160" r="2" fill="white"/>
  <circle cx="195" cy="145" r="1" fill="white"/>
  
  <circle cx="25" cy="170" r="1.5" fill="white"/>
  <circle cx="45" cy="185" r="1" fill="white"/>
  <circle cx="65" cy="160" r="2" fill="white"/>
  <circle cx="85" cy="175" r="1" fill="white"/>
  <circle cx="105" cy="190" r="1.5" fill="white"/>
  <circle cx="125" cy="165" r="1" fill="white"/>
  <circle cx="145" cy="180" r="2" fill="white"/>
  <circle cx="165" cy="195" r="1" fill="white"/>
  <circle cx="185" cy="170" r="1.5" fill="white"/>
</svg>
